<svg width="52.000000" height="52.000000" viewBox="0 0 52 52" fill="none" xmlns="http://www.w3.org/2000/svg" xmlns:xlink="http://www.w3.org/1999/xlink">
	<desc>
			Created with Pixso.
	</desc>
	<defs>
		<clipPath id="clip306_578">
			<rect id="Icon" rx="0.000000" width="23.000000" height="23.000000" transform="translate(14.500000 14.500000)" fill="white" fill-opacity="0"/>
		</clipPath>
	</defs>
	<rect id="Button" rx="25.500000" width="51.000000" height="51.000000" transform="translate(0.500000 0.500000)" fill="#FFD11A" fill-opacity="1.000000"/>
	<g clip-path="url(#clip306_578)">
		<path id="Vector 431 (Stroke)" d="M22.25 17.75L33.5 17.75C33.69 17.75 33.88 17.82 34.03 17.96C34.17 18.11 34.25 18.3 34.25 18.5L34.25 29.75C34.25 30.16 33.91 30.5 33.5 30.5C33.08 30.5 32.75 30.16 32.75 29.75L32.75 20.31L19.03 34.03C18.73 34.32 18.26 34.32 17.96 34.03C17.67 33.73 17.67 33.26 17.96 32.96L31.68 19.25L22.25 19.25C21.83 19.25 21.5 18.91 21.5 18.5C21.5 18.08 21.83 17.75 22.25 17.75Z" fill="#141414" fill-opacity="1.000000" fill-rule="evenodd"/>
	</g>
</svg>
